<?xml version="1.0" encoding="UTF-8"?>
<svg id="Calque_1" data-name="Calque 1" xmlns="http://www.w3.org/2000/svg" viewBox="0 0 1182.5 572.85">
  <defs>
    <style>
      .cls-1 {
        fill: #fcefd0;
      }
    </style>
  </defs>
  <g>
    <path class="cls-1" d="M.04,332.49l1.84-63.25c27.66,7.36,44.72,9.15,63.22,6.79,13.64-1.74,23.45-7.61,21.96-19.29-.87-6.82-6.44-11.72-14.69-14.29l-24.05-7.49c-28.84-8.86-44.03-27.05-47.46-54-6.54-51.3,25-88.64,76.62-95.22,34.09-4.34,57.97-.79,82.32,14.25l-22.23,55.95c-16.79-10.07-29.26-12.11-42.57-10.41-14.93,1.9-21.21,9.63-19.93,19.7.91,7.14,5.39,11.19,14,14.05l24.05,7.49c29.21,9.14,44.68,26.97,48.49,56.84,6.04,47.4-28.01,85.72-90.02,93.63-23.05,2.94-44.16,2.99-71.54-4.74Z"/>
    <path class="cls-1" d="M179.26,247.62c-.99-7.79-1.7-15.95-1.48-24.56.66-64.75,30.58-96.61,74.73-102.24,19.8-2.52,39.42,1.24,51.3,11.61l2.12-14.46,49.67-6.33-5.64,186.14-58.44,7.45-2.23-17.53c-6.95,12.76-21.62,24.53-40.77,26.97-41.88,5.34-63.79-24.2-69.25-67.06ZM281.51,244.82l1.87-65.57c-3.29-2.55-8.05-3.59-13.24-2.93-14.29,1.82-20.87,14.87-21.42,39.02-.31,7.96-.17,14.21.78,21.68,1.78,13.96,8.33,18.73,17.42,17.58,5.84-.74,11.03-4.05,14.59-9.78Z"/>
    <path class="cls-1" d="M383.2,108.13l58.76-7.49,1.45,11.36c.5,3.9.59,9.82.12,16.48l1.3-.17c5.4-17.18,22.04-34.15,39.9-36.43,5.84-.74,10.19-.31,14.37,1.47l-1.82,68.53c-4.38,1.88-8.88,2.78-13.75,3.4-10.06,1.28-21.07.38-32.32-2.48l-3.52,122.52-70.13,8.94,5.64-186.14Z"/>
    <path class="cls-1" d="M505.53,206.04c-.99-7.79-1.7-15.95-1.48-24.56.66-64.75,30.58-96.61,74.73-102.24,19.8-2.52,39.42,1.24,51.3,11.61l2.12-14.46,49.67-6.33-5.64,186.14-58.44,7.45-2.23-17.53c-6.95,12.76-21.62,24.53-40.77,26.97-41.88,5.34-63.79-24.2-69.25-67.06ZM607.78,203.23l1.87-65.57c-3.29-2.55-8.05-3.59-13.24-2.93-14.29,1.82-20.87,14.87-21.42,39.02-.31,7.96-.17,14.21.78,21.68,1.78,13.96,8.33,18.73,17.42,17.58,5.84-.74,11.03-4.05,14.59-9.78Z"/>
    <path class="cls-1" d="M711.05,8.94L781.18,0l-1.98,69.87c10.32-12.2,23.3-19.14,39.2-21.16,31.49-4.01,53.65,11.97,58.7,51.58.91,7.14,1.58,17.61,1.33,28.54l-3.16,102.02-70.13,8.94,3.12-104.99c.11-4.3-.02-7.92-.47-11.49-1.28-10.06-6.65-13.34-14.44-12.35-5.84.74-11.56,5.1-15.97,11.93l-3.4,120.86-70.13,8.94,7.21-243.75Z"/>
  </g>
  <g>
    <path class="cls-1" d="M289.7,330.64l71.61-9.13-2.85,90.83c18.08-27.87,28.44-49.51,46.07-96.34l83.22-10.6c-16.14,45.65-30.2,71.7-61.71,117.67,28.46,45.87,44.48,81.52,57.45,124.12l-79.03,10.07c-8.42-30.07-16.06-54.01-30.01-83.7-6.67,9.37-12.91,17.05-18.38,22.99l-1.94,67.12-71.93,9.17,7.49-242.21Z"/>
    <path class="cls-1" d="M499.72,360.91l58.7-7.48,2.14,16.77c11.13-15.51,26.72-24.38,46.07-26.85,31.93-4.07,54.84,11.04,59.93,51.04.9,7.1,1.57,17.5,1.32,28.35l-3.14,101.36-69.67,8.88,3.1-104.3c.11-4.28-.02-7.86-.47-11.41-1.27-10-6.61-13.25-14.35-12.27-5.81.74-11.48,5.07-15.86,11.86l-3.38,120.08-69.67,8.88,5.28-184.89Z"/>
    <path class="cls-1" d="M688.36,449.63c-.99-7.74-1.69-15.85-1.47-24.4.65-64.33,30.38-95.98,74.25-101.57,19.68-2.51,39.16,1.24,50.97,11.53l2.1-14.36,49.35-6.29-5.61,184.93-58.06,7.4-2.22-17.42c-6.91,12.68-21.48,24.37-40.51,26.8-41.61,5.3-63.38-24.05-68.8-66.62ZM789.95,446.84l1.86-65.14c-3.27-2.53-7.99-3.57-13.16-2.91-14.19,1.81-20.74,14.77-21.28,38.77-.3,7.91-.17,14.12.78,21.54,1.77,13.87,8.27,18.61,17.3,17.46,5.81-.74,10.96-4.02,14.5-9.71Z"/>
    <path class="cls-1" d="M858.98,556.38l1.72-55.94c5,.67,9.24.46,14.72-.24,15.8-2.01,20.5-11.46,20.86-29.21l2.08-73.69-20,2.55,1.84-57.6,20-2.55.33-12.83c1.45-50.34,24.33-79.15,70.46-85.03,15.16-1.93,31.94-1.45,43.12,4.01l-10.07,54.71c-6.58-2.77-12.59-3.64-18.4-2.9-11.29,1.44-14.94,8.79-15.44,20.32l-.65,12.87,23.87-3.04-1.84,57.6-23.87,3.04-2.3,82.24c-1.6,54.29-29.82,79.85-80.78,86.34-9.35,1.19-18.23,1.01-25.65-.66Z"/>
    <path class="cls-1" d="M1005.67,408.53c-.78-6.13-1.49-14.23-1.11-24.12,2.11-63.2,29.46-95.54,87.51-102.93,51.29-6.54,83.08,16.62,89.21,64.68.78,6.13,1.49,14.23,1.11,24.12-2.11,63.2-29.46,95.54-87.51,102.93-51.29,6.54-83.08-16.62-89.21-64.68ZM1111.82,374.68c.34-7.58.21-13.79-.45-18.95-1.69-13.22-6.94-18.46-16.62-17.22-13.55,1.73-18.6,13.52-19.62,41.51-.34,7.58-.21,13.79.45,18.95,1.69,13.22,6.94,18.46,16.62,17.22,13.55-1.73,18.6-13.52,19.62-41.51Z"/>
  </g>
</svg>